<?xml version="1.0" encoding="UTF-8"?><svg id="Layer_2" xmlns="http://www.w3.org/2000/svg" viewBox="0 0 313.52 97.04"><defs><style>.cls-1{fill:#fff;}</style></defs><g id="Layer_2-2"><g><g><path class="cls-1" d="M152.57,.27S38.99-1.14,31.83,2.45,19.15,13.75,12.25,49.31c-6.89,35.56-3.86,38.04,0,42.73,3.86,4.69,16.82,3.86,16.82,3.86l42.45,.06s-23.1-1.36-31.01-2.54-16.26-1.14-20.12-4.27c-8.22-6.66-5.92-12.31-5.79-15.85,.14-3.86,5.63-35.01,6.75-38.73,1.35-4.48,4.76-17.69,7.31-21.36C38.17-.55,61.32,3.27,152.57,.27Z"/><path class="cls-1" d="M25.48,9.89H10.26c-1.34,0-2.61,.61-3.45,1.65L1.01,18.77c-.44,.55-.68,1.22-.7,1.92L0,33.94c0,.31,.24,.56,.55,.56h0c1.45,0,2.68-1.08,2.85-2.52l1.31-10.66c.07-.53,.27-1.03,.6-1.45l2.46-3.15c.83-1.06,2.09-1.67,3.43-1.66l12.23,.06c.09,0,.18-.05,.21-.14l2.04-4.76c.06-.15-.05-.32-.21-.32Z"/></g><g><path class="cls-1" d="M49.68,27.61l1.04-6.31h33.43l-1.07,6.31h-12.93l-5.89,35.65h-7.52l5.89-35.65h-12.95Z"/><path class="cls-1" d="M93.78,44.81l-3.04,18.45h-7.32l6.96-41.96h7.21l-3.04,18.25h-.73c.88-1.82,1.88-3.34,3-4.55,1.12-1.21,2.36-2.12,3.73-2.72,1.37-.6,2.9-.9,4.59-.9,2.16,0,4,.46,5.52,1.38,1.52,.92,2.61,2.26,3.28,4.03,.67,1.76,.78,3.91,.35,6.45l-3.32,20.02h-7.35l3.15-18.9c.36-2.14,.07-3.8-.85-4.98-.92-1.18-2.33-1.77-4.22-1.77-1.28,0-2.47,.28-3.58,.85-1.11,.56-2.04,1.38-2.8,2.45-.76,1.07-1.27,2.38-1.53,3.91Z"/><path class="cls-1" d="M130.25,63.82c-2.46,0-4.57-.64-6.32-1.92s-3-3.13-3.73-5.56c-.73-2.43-.81-5.35-.23-8.77,.58-3.51,1.65-6.47,3.2-8.87s3.41-4.22,5.59-5.46c2.18-1.24,4.48-1.86,6.9-1.86,1.86,0,3.33,.31,4.41,.93,1.08,.62,1.9,1.37,2.46,2.24,.56,.87,.97,1.69,1.21,2.44h.34l.84-5.21h7.32l-5.21,31.48h-7.21l.82-4.98h-.45c-.53,.79-1.22,1.61-2.08,2.46-.86,.85-1.93,1.58-3.21,2.18-1.28,.6-2.83,.9-4.65,.9Zm3.04-6.03c1.6,0,3.02-.43,4.27-1.3,1.25-.86,2.29-2.07,3.13-3.6,.83-1.54,1.42-3.33,1.76-5.38,.34-2.05,.34-3.83,.01-5.34-.33-1.51-.98-2.68-1.94-3.52-.97-.83-2.26-1.25-3.87-1.25s-3.11,.44-4.38,1.32c-1.27,.88-2.3,2.08-3.11,3.6-.81,1.52-1.37,3.25-1.69,5.18-.32,1.97-.32,3.73-.01,5.28,.31,1.55,.95,2.77,1.93,3.66s2.28,1.34,3.91,1.34Z"/><path class="cls-1" d="M154.8,63.26l5.21-31.48h7.1l-.87,5.27h.34c.86-1.82,2.08-3.22,3.66-4.21,1.58-.99,3.27-1.48,5.07-1.48,.41,0,.87,.02,1.37,.06,.5,.04,.91,.08,1.25,.14l-1.13,6.73c-.32-.09-.81-.18-1.46-.25-.66-.07-1.3-.11-1.92-.11-1.35,0-2.61,.29-3.79,.87-1.17,.58-2.15,1.38-2.93,2.41-.78,1.02-1.28,2.2-1.51,3.53l-3.07,18.53h-7.32Z"/><path class="cls-1" d="M188.46,63.65c-2.14,0-3.94-.46-5.41-1.38-1.46-.92-2.5-2.26-3.11-4.03s-.72-3.91-.32-6.45l3.32-20.02h7.32l-3.13,18.9c-.34,2.1-.07,3.75,.82,4.96,.88,1.2,2.29,1.8,4.22,1.8,1.3,0,2.49-.28,3.59-.84,1.1-.56,2.03-1.38,2.8-2.45s1.29-2.38,1.55-3.92l3.01-18.45h7.35l-5.21,31.48h-6.96l1.21-7.77h.54c-1.31,2.74-2.94,4.79-4.89,6.14-1.94,1.35-4.18,2.03-6.72,2.03Z"/><path class="cls-1" d="M225.21,63.91c-2.4,0-4.49-.35-6.25-1.04-1.77-.69-3.15-1.68-4.15-2.97-1-1.29-1.58-2.82-1.73-4.6,0-.11,0-.21-.01-.3,0-.08-.01-.17-.01-.27l6.9-.79c.15,1.54,.68,2.65,1.58,3.34,.9,.69,2.22,1.03,3.97,1.03,1.2,0,2.31-.18,3.32-.54,1.01-.36,1.85-.84,2.51-1.45s1.03-1.32,1.13-2.13c.09-.81-.13-1.49-.68-2.04-.54-.55-1.48-.97-2.82-1.25l-5.18-1.15c-2.74-.64-4.75-1.69-6.01-3.15-1.27-1.46-1.79-3.3-1.56-5.52,.21-2.03,.95-3.76,2.24-5.21,1.29-1.45,2.94-2.55,4.97-3.32,2.03-.77,4.24-1.15,6.65-1.15,3.47,0,6.15,.7,8.03,2.1,1.88,1.4,2.99,3.22,3.32,5.48,.04,.11,.07,.24,.1,.38,.03,.14,.05,.28,.07,.41l-6.56,.79c-.19-1.09-.65-1.98-1.39-2.66-.74-.69-1.93-1.03-3.56-1.03-1.05,0-2.06,.17-3.01,.51-.96,.34-1.76,.8-2.39,1.39-.64,.59-1,1.31-1.1,2.15-.13,.83,.08,1.51,.63,2.04s1.57,.97,3.06,1.31l5.15,1.13c2.76,.6,4.78,1.6,6.05,3.01,1.28,1.41,1.79,3.19,1.55,5.35-.15,1.56-.64,2.96-1.46,4.21-.83,1.25-1.91,2.32-3.27,3.21-1.35,.89-2.89,1.57-4.6,2.04-1.72,.47-3.53,.7-5.45,.7Z"/><path class="cls-1" d="M255.06,44.81l-3.04,18.45h-7.32l6.96-41.96h7.21l-3.04,18.25h-.73c.88-1.82,1.88-3.34,3-4.55,1.12-1.21,2.36-2.12,3.73-2.72,1.37-.6,2.9-.9,4.59-.9,2.16,0,4,.46,5.52,1.38,1.52,.92,2.61,2.26,3.28,4.03,.67,1.76,.78,3.91,.35,6.45l-3.32,20.02h-7.35l3.15-18.9c.36-2.14,.07-3.8-.84-4.98-.92-1.18-2.33-1.77-4.22-1.77-1.28,0-2.47,.28-3.58,.85-1.11,.56-2.04,1.38-2.8,2.45-.76,1.07-1.27,2.38-1.53,3.91Z"/><path class="cls-1" d="M291.53,63.82c-2.46,0-4.57-.64-6.32-1.92s-3-3.13-3.73-5.56c-.73-2.43-.81-5.35-.22-8.77,.58-3.51,1.65-6.47,3.2-8.87s3.41-4.22,5.59-5.46c2.18-1.24,4.48-1.86,6.9-1.86,1.86,0,3.33,.31,4.41,.93,1.08,.62,1.9,1.37,2.46,2.24,.56,.87,.97,1.69,1.21,2.44h.34l.84-5.21h7.32l-5.21,31.48h-7.21l.82-4.98h-.45c-.53,.79-1.22,1.61-2.08,2.46-.86,.85-1.93,1.58-3.21,2.18s-2.83,.9-4.65,.9Zm3.04-6.03c1.59,0,3.02-.43,4.27-1.3,1.25-.86,2.29-2.07,3.13-3.6,.84-1.54,1.42-3.33,1.76-5.38,.34-2.05,.34-3.83,.01-5.34-.33-1.51-.98-2.68-1.94-3.52-.97-.83-2.26-1.25-3.87-1.25s-3.11,.44-4.38,1.32c-1.27,.88-2.3,2.08-3.11,3.6-.81,1.52-1.37,3.25-1.69,5.18-.32,1.97-.32,3.73-.01,5.28s.95,2.77,1.93,3.66,2.28,1.34,3.92,1.34Z"/></g><g><path class="cls-1" d="M172.31,75.98c-1.55,.34-3.02,.74-4.41,1.2-1.36,.45-2.42,.88-3.2,1.29-.8,.42-1.15,.76-1.05,1,.08,.18,.07,.3-.04,.35-.11,.07-.27,.04-.47-.08-.58-.36-.67-.78-.25-1.26,.4-.45,1.2-.93,2.42-1.43,1.21-.48,2.7-.94,4.47-1.39,1.82-.46,3.78-.85,5.87-1.17,2.23-.35,4.44-.6,6.65-.75,2.08-.14,3.55-.22,4.41-.24,.99-.03,1.69,0,2.09,.1,.36,.08,.63,.25,.81,.51,.42,.6,.2,.84-.67,.71-1.36-.19-3.04-.26-5.04-.21-1.94,.04-3.97,.18-6.07,.44,.36,.17,.55,.37,.57,.59-.03,.13-.22,.43-.58,.89-1.02,1.3-2.21,3.22-3.58,5.74-1.28,2.38-2.37,4.64-3.27,6.78-.94,2.25-1.37,3.68-1.27,4.29,.03,.12,0,.23-.06,.33-.07,.1-.14,.14-.21,.11-.02,0-.1-.03-.25-.07-.28-.07-.46-.17-.54-.3-.09-.16-.11-.42-.04-.78,.07-.31,.22-.84,.45-1.58,.39-1.17,1.09-2.93,2.12-5.29,.95-2.22,1.92-4.33,2.89-6.35,1.03-2.13,1.75-3.51,2.18-4.15-1.4,.21-2.71,.45-3.93,.72Z"/><path class="cls-1" d="M179.09,87.55c-.65,.59-1.25,.74-1.8,.44-.32-.17-.53-.54-.62-1.1-.09-.52-.08-1.09,.04-1.73,.11-.63,.3-1.15,.57-1.56,.28-.43,.6-.63,.95-.58,.15,.02,.26,.05,.34,.08,.22-.46,.54-.69,.96-.69h.03c.47,0,.81,.21,1.02,.62,.19,.38,.24,.87,.16,1.49-.08,.61-.3,1.21-.65,1.8,.44,.17,.93,.12,1.47-.14,.55-.26,1.06-.71,1.53-1.34,.08-.12,.16-.16,.25-.11,.14,.06,.21,.13,.2,.21,0,.08-.1,.21-.27,.4-1.06,1.13-2.1,1.6-3.13,1.4-.08-.02-.17-.04-.25-.07-.24,.33-.5,.63-.79,.89Zm-1.4-1.8c-.16,.53-.24,.98-.23,1.36,.02,.39,.13,.58,.33,.58,.29,0,.59-.12,.89-.37,.27-.23,.53-.53,.76-.92-.33-.24-.59-.55-.79-.95-.22-.41-.33-.81-.33-1.22-.26,.44-.48,.95-.64,1.51Zm1.44-2.04c-.11,.37-.13,.76-.06,1.17,.08,.43,.24,.79,.5,1.06,.02,.03,.04,.06,.07,.08,.33-.65,.51-1.28,.54-1.88,.04-.64-.12-1.06-.48-1.25-.26,.15-.45,.42-.57,.81Z"/><path class="cls-1" d="M184.56,87.92c-.39,.35-.76,.42-1.12,.21-.3-.16-.49-.56-.55-1.19-.05-.58,0-1.23,.16-1.97,.16-.73,.38-1.32,.66-1.78,.3-.51,.62-.74,.95-.68,.34,.07,.52,.18,.55,.34,.03,.17-.09,.45-.35,.83-.31,.45-.58,.98-.81,1.57-.23,.58-.37,1.09-.44,1.56-.07,.48-.03,.8,.11,.95,.1,.09,.31-.03,.61-.38,.29-.34,.63-.83,1-1.47,.39-.67,.75-1.38,1.09-2.14h.01c.11-.38,.24-.67,.38-.86,.14-.22,.28-.31,.42-.28,.42,.07,.68,.19,.78,.37,.08,.18,0,.51-.21,1-.44,.95-.65,1.75-.61,2.39,.03,.58,.24,.94,.64,1.08,.41,.12,.89-.01,1.46-.41,.61-.43,1.21-1.11,1.8-2.02,.16-.29,.28-.42,.37-.4,.1,.05,.16,.1,.17,.16,0,.06-.02,.14-.08,.24-.33,.55-.69,1.04-1.08,1.49-.56,.63-1.12,1.08-1.68,1.36-.37,.17-.75,.22-1.16,.16-.43-.07-.79-.26-1.06-.58-.31-.37-.47-.85-.48-1.44,0-.08,0-.17,.01-.27-.64,1.12-1.16,1.85-1.54,2.18Z"/><path class="cls-1" d="M190.77,88.42c-.32-.31-.15-1.54,.51-3.69,.24-.75,.42-1.29,.54-1.6,.14-.35,.28-.58,.41-.69,.11-.09,.27-.13,.48-.11,.42,.04,.65,.15,.69,.34,.05,.19-.07,.54-.35,1.05-.43,.77-.81,1.58-1.13,2.43,.68-1.25,1.29-2.23,1.84-2.94,.53-.7,.95-1.09,1.26-1.17,.32-.08,.5,.17,.52,.75,.04,.65,.17,1.06,.41,1.22,.23,.16,.46,.01,.71-.44,.14-.24,.28-.34,.41-.31,.14,.02,.17,.15,.07,.4-.18,.4-.43,.64-.76,.74-.32,.09-.61,.04-.88-.16-.29-.22-.47-.55-.54-.99-.03-.26-.07-.39-.11-.38-.05,0-.17,.13-.37,.4-.86,1.2-1.64,2.6-2.33,4.22-.21,.5-.36,.82-.47,.95-.11,.15-.25,.21-.41,.18-.17,.02-.33-.04-.5-.17Z"/><path class="cls-1" d="M200.38,86.76c.32,.49,.1,.92-.65,1.29-.34,.18-.75,.32-1.23,.41-.48,.09-.82,.1-1.02,.03-.86-.31-.54-.95,.95-1.92,.03-.02,.07-.04,.11-.07,.19-.12,.34-.22,.45-.28-.15-.09-.3-.18-.45-.27-.76-.43-1.19-.86-1.29-1.29-.09-.42,.14-.86,.69-1.33,.52-.43,1.12-.75,1.8-.96,.65-.2,1.21-.25,1.67-.16,.48,.09,.72,.33,.72,.72,0,.19-.05,.33-.16,.44-.09,.09-.2,.12-.31,.07-.12-.06-.2-.17-.24-.35-.06-.2-.32-.24-.79-.11-.44,.1-.91,.3-1.4,.58-.53,.3-.88,.6-1.06,.89-.08,.14-.08,.29,0,.44,.06,.11,.18,.25,.37,.41,.08,.07,.27,.2,.55,.41,.16,.11,.28,.2,.37,.25,.21-.11,.34-.18,.41-.21,.51-.24,1.03-.45,1.57-.64,.52-.17,.95-.28,1.29-.34,.35-.06,.52-.04,.52,.06,0,.07-.02,.1-.07,.11-1,.3-1.87,.62-2.6,.96-.25,.11-.49,.24-.72,.37,.26,.21,.44,.37,.52,.5Zm-2.28,.75c-.28,.28-.42,.44-.4,.48,.02,.03,.22,0,.59-.11,1.3-.37,1.73-.79,1.29-1.26-.03-.03-.08-.07-.14-.11-.26,.15-.5,.29-.69,.42-.15,.11-.37,.31-.65,.58Z"/><path class="cls-1" d="M218.33,96.83c-.42-.21-.78-.66-1.08-1.36-.28-.71-.48-1.6-.59-2.69-.04-.42-.07-.68-.1-.79s-.07-.16-.11-.14c-1.25,.47-2.56,.75-3.93,.83-1.32,.08-2.3-.07-2.94-.44-.54-.34-.83-.71-.89-1.12-.06-.44,.16-1,.64-1.66,.48-.66,1.29-1.51,2.43-2.56,1.06-.96,2.56-2.24,4.5-3.82,.08-.07,.19-.16,.33-.27,.53-.41,.86-.71,1-.91,.13-.2,.25-.52,.34-.98,.04-.12,.07-.22,.08-.3,.43-1.74,.97-3.46,1.61-5.16,.62-1.64,1.23-2.98,1.81-4,.6-1.07,1.08-1.6,1.42-1.6,1.03,0,1.22,.48,.58,1.44-1.45,2.19-2.67,4.79-3.65,7.79-.02,.07-.05,.15-.08,.25-.21,.58-.28,.89-.21,.92,.06,.03,.32-.18,.79-.64,.09-.08,.17-.15,.21-.2,1.25-1.15,2.34-2.3,3.25-3.44,.88-1.08,1.53-2.08,1.95-2.97,.42-.9,.58-1.6,.45-2.11-.12-.54-.53-.82-1.23-.85-.42-.03-.71-.13-.88-.31-.17-.18-.12-.33,.14-.45,.34-.13,.78-.09,1.32,.11,.53,.2,.92,.48,1.19,.85,.48,.66,.55,1.52,.21,2.58-.33,1.06-1.05,2.27-2.15,3.64-1.11,1.38-2.58,2.87-4.4,4.47-.74,.65-1.17,1.07-1.32,1.25-.18,.23-.3,.52-.35,.89-.25,1.05-.49,2.33-.72,3.83-.23,1.51-.34,2.54-.34,3.1,0,.05,.24-.04,.72-.25,.45-.21,1-.47,1.63-.79,.67-.34,1.25-.65,1.74-.93,1.37-.79,2.57-1.58,3.61-2.36,1.04-.77,1.89-1.53,2.56-2.26,.68-.74,1.14-1.42,1.39-2.05,.26-.64,.3-1.2,.1-1.67-.04-.09-.16-.21-.37-.35-.37-.25-.57-.49-.61-.71-.03-.21,.09-.33,.37-.37,.28-.05,.64,.03,1.08,.23,1.05,.47,1.5,1.23,1.37,2.28-.12,.98-.75,2.1-1.87,3.37-1.13,1.25-2.62,2.48-4.46,3.68-1.93,1.27-4.04,2.36-6.32,3.25-.45,.15-.73,.31-.83,.47-.09,.15-.12,.5-.07,1.03,.04,.92,.15,1.72,.33,2.39,.18,.66,.41,1.13,.69,1.42,.17,.15,.25,.29,.25,.42,0,.12-.08,.18-.24,.18,0,0-.12-.06-.34-.17Zm-5.25-5.22c1.21-.29,2.26-.61,3.17-.96,.15-.05,.25-.14,.28-.27,.04-.11,.07-.47,.08-1.06,.09-1.59,.29-3.26,.59-5.01,.09-.53,.13-.79,.11-.79-.07,0-.53,.35-1.39,1.06-.8,.67-1.65,1.4-2.53,2.18-.95,.83-1.58,1.41-1.88,1.73-.9,.93-1.44,1.68-1.63,2.25-.18,.56,0,.91,.54,1.06,.54,.15,1.42,.09,2.65-.18Z"/><path class="cls-1" d="M247.46,75.98c-1.55,.34-3.02,.74-4.42,1.2-1.36,.45-2.42,.88-3.2,1.29-.8,.42-1.15,.76-1.05,1,.08,.18,.07,.3-.04,.35-.11,.07-.27,.04-.47-.08-.58-.36-.67-.78-.25-1.26,.4-.45,1.2-.93,2.42-1.43,1.21-.48,2.7-.94,4.47-1.39,1.82-.46,3.78-.85,5.87-1.17,2.23-.35,4.44-.6,6.65-.75,2.08-.14,3.55-.22,4.41-.24,.99-.03,1.69,0,2.09,.1,.36,.08,.63,.25,.81,.51,.42,.6,.2,.84-.67,.71-1.36-.19-3.04-.26-5.04-.21-1.94,.04-3.97,.18-6.07,.44,.36,.17,.55,.37,.57,.59-.03,.13-.22,.43-.58,.89-1.02,1.3-2.21,3.22-3.58,5.74-1.28,2.38-2.37,4.64-3.27,6.78-.94,2.25-1.37,3.68-1.27,4.29,.03,.12,0,.23-.06,.33-.07,.1-.14,.14-.21,.11-.02,0-.1-.03-.25-.07-.28-.07-.46-.17-.54-.3-.09-.16-.11-.42-.04-.78,.07-.31,.22-.84,.45-1.58,.39-1.17,1.09-2.93,2.12-5.29,.95-2.22,1.91-4.33,2.89-6.35,1.03-2.13,1.75-3.51,2.18-4.15-1.4,.21-2.71,.45-3.93,.72Z"/><path class="cls-1" d="M251.45,88.42c-.32-.31-.15-1.54,.51-3.69,.24-.75,.42-1.29,.54-1.6,.14-.35,.28-.58,.41-.69,.11-.09,.27-.13,.48-.11,.42,.04,.65,.15,.69,.34,.05,.19-.07,.54-.35,1.05-.43,.77-.81,1.58-1.13,2.43,.68-1.25,1.29-2.23,1.84-2.94,.53-.7,.95-1.09,1.26-1.17,.32-.08,.5,.17,.52,.75,.04,.65,.17,1.06,.41,1.22,.23,.16,.46,.01,.71-.44,.14-.24,.28-.34,.41-.31,.14,.02,.17,.15,.07,.4-.18,.4-.43,.64-.76,.74-.32,.09-.61,.04-.88-.16-.29-.22-.47-.55-.54-.99-.03-.26-.07-.39-.11-.38-.05,0-.17,.13-.37,.4-.86,1.2-1.64,2.6-2.33,4.22-.21,.5-.36,.82-.47,.95-.11,.15-.25,.21-.41,.18-.17,.02-.33-.04-.5-.17Z"/><path class="cls-1" d="M260.75,85.64s-.02,.03-.03,.04c-.61,.9-1.05,1.5-1.32,1.83-.31,.38-.57,.59-.78,.65-.18,.05-.39-.01-.64-.18-.53-.38-.56-1.31-.1-2.79,.72-2.24,1.86-3.07,3.44-2.5,.24,.08,.42,.12,.57,.11,.08-.04,.17-.06,.25-.06,.43,0,.69,.12,.78,.33,.08,.21,0,.56-.23,1.05-.45,.95-.67,1.75-.65,2.39,.02,.58,.23,.92,.62,1.03,.4,.12,.88-.02,1.44-.42,.62-.44,1.22-1.12,1.8-2.04,.21-.29,.38-.42,.51-.38,.13,.04,.13,.21-.01,.51-.28,.55-.67,1.07-1.16,1.56-.52,.52-1.04,.9-1.56,1.13-.36,.16-.73,.22-1.1,.17-.39-.06-.71-.22-.98-.5-.28-.29-.46-.68-.52-1.16-.05-.38-.07-.77-.06-1.19-.06,.08-.15,.23-.28,.42Zm-.61-.61c.38-.55,.61-.9,.71-1.05,.13-.21,.2-.34,.21-.4,0-.05-.02-.08-.08-.1h-.01c-.25-.08-.56,.09-.95,.5-.37,.4-.69,.88-.98,1.44-.28,.57-.43,1.08-.44,1.54,0,.11,.03,.15,.08,.11,.06-.04,.18-.19,.38-.47,.16-.24,.48-.7,.95-1.39,.03-.05,.07-.11,.13-.2Z"/><path class="cls-1" d="M265.91,88.59c-.15,0-.29-.07-.42-.17-.32-.31-.15-1.54,.51-3.69,.24-.75,.41-1.29,.54-1.6,.14-.35,.28-.58,.41-.69,.11-.09,.27-.13,.48-.11,.42,.04,.65,.15,.69,.34,.05,.19-.07,.54-.35,1.05-.64,1.19-1.12,2.29-1.44,3.31,.22-.38,.59-1,1.13-1.87,.75-1.2,1.43-2.06,2.05-2.59,.59-.49,1.03-.6,1.32-.34,.28,.28,.33,.92,.16,1.92-.21,1.17-.27,2.03-.2,2.59,.07,.53,.26,.79,.59,.78,.36-.03,.82-.25,1.37-.68,.59-.46,1.08-.98,1.46-1.54,.2-.31,.33-.5,.4-.55,.08-.07,.17-.05,.25,.06,.09,.1,0,.36-.27,.78-.27,.42-.62,.84-1.05,1.26-.49,.48-.96,.83-1.41,1.06-.9,.42-1.56,.3-2-.38-.42-.68-.49-1.8-.2-3.35,.15-.74,.21-1.11,.18-1.13-.08-.08-.38,.22-.91,.88-.48,.61-1,1.34-1.56,2.19-.58,.89-1,1.58-1.23,2.07-.08,.15-.16,.26-.24,.33-.04,.08-.13,.11-.27,.1Z"/><path class="cls-1" d="M277.5,86.76c.32,.49,.1,.92-.65,1.29-.34,.18-.75,.32-1.23,.41-.48,.09-.82,.1-1.02,.03-.86-.31-.54-.95,.95-1.92,.03-.02,.07-.04,.11-.07,.19-.12,.34-.22,.45-.28-.15-.09-.3-.18-.45-.27-.76-.43-1.19-.86-1.29-1.29-.09-.42,.14-.86,.69-1.33,.52-.43,1.12-.75,1.8-.96,.65-.2,1.21-.25,1.67-.16,.48,.09,.72,.33,.72,.72,0,.19-.05,.33-.16,.44-.09,.09-.2,.12-.31,.07-.12-.06-.2-.17-.24-.35-.06-.2-.32-.24-.79-.11-.44,.1-.91,.3-1.4,.58-.53,.3-.88,.6-1.06,.89-.08,.14-.08,.29,0,.44,.06,.11,.18,.25,.37,.41,.08,.07,.27,.2,.55,.41,.16,.11,.28,.2,.37,.25,.21-.11,.34-.18,.41-.21,.51-.24,1.03-.45,1.57-.64,.52-.17,.95-.28,1.29-.34,.35-.06,.52-.04,.52,.06,0,.07-.02,.1-.07,.11-1,.3-1.87,.62-2.6,.96-.25,.11-.49,.24-.72,.37,.26,.21,.44,.37,.52,.5Zm-2.28,.75c-.28,.28-.42,.44-.4,.48,.02,.03,.22,0,.59-.11,1.3-.37,1.73-.79,1.29-1.26-.03-.03-.08-.07-.14-.11-.26,.15-.5,.29-.69,.42-.15,.11-.37,.31-.65,.58Z"/><path class="cls-1" d="M278.05,93.69c-.37,1.5-.51,2.51-.42,3.04,.03,.16,0,.26-.11,.3-.1,.03-.24-.01-.4-.13-.26-.18-.3-.88-.11-2.09,.18-1.18,.54-2.67,1.08-4.47,.56-1.86,1.23-3.77,2.01-5.74,.03-.08,.08-.2,.14-.35,.27-.7,.45-1.14,.54-1.33,.11-.25,.21-.42,.28-.48,.06-.05,.16-.07,.3-.07,.03,0,.05,.01,.07,.01,.38-.02,.59,.06,.64,.23,.05,.16-.06,.51-.33,1.05,.1-.13,.21-.25,.31-.35,.51-.55,1-.93,1.46-1.16,.43-.22,.82-.28,1.15-.2,.31,.08,.54,.29,.69,.62,.16,.34,.22,.77,.17,1.29-.02,.21-.06,.44-.11,.69,.18-.03,.35-.05,.52-.06,.59-.03,1.08,.01,1.46,.13,.36,.11,.47,.25,.33,.42-.05,.06-.17,.06-.37,.01-.09,0-.17-.02-.23-.03-.63-.1-1.26-.05-1.88,.16-.23,.75-.53,1.48-.92,2.18-.45,.81-.97,1.44-1.54,1.9-.68,.52-1.24,.6-1.68,.24-.27-.24-.35-.59-.24-1.08,.11-.46,.38-.96,.81-1.5,.43-.55,.95-1.02,1.54-1.42,.29-.21,.59-.39,.89-.54,.41-1.28,.45-2.08,.14-2.39-.14-.13-.41-.03-.81,.3-.37,.31-.79,.77-1.26,1.39-.48,.62-.92,1.28-1.33,1.97-.43,.75-.76,1.41-.98,2-.13,.39-.25,.63-.35,.74-.6,1.73-1.08,3.31-1.44,4.74Zm3.62-4.56c.17,.02,.43-.21,.79-.69,.42-.6,.77-1.22,1.03-1.85,.09-.24,.18-.45,.25-.64,0,0-.02,0-.04,.03-.05,.03-.08,.05-.11,.07-.35,.31-.68,.65-.99,1-.44,.51-.74,.95-.89,1.32-.18,.5-.19,.75-.04,.76Z"/><path class="cls-1" d="M289.69,87.55c-.65,.59-1.25,.74-1.8,.44-.32-.17-.53-.54-.62-1.1-.09-.52-.08-1.09,.04-1.73,.11-.63,.3-1.15,.57-1.56,.28-.43,.6-.63,.95-.58,.15,.02,.26,.05,.34,.08,.22-.46,.54-.69,.96-.69h.03c.47,0,.81,.21,1.02,.62,.19,.38,.24,.87,.16,1.49-.08,.61-.3,1.21-.65,1.8,.44,.17,.93,.12,1.47-.14,.55-.26,1.06-.71,1.53-1.34,.08-.12,.16-.16,.25-.11,.14,.06,.21,.13,.2,.21,0,.08-.1,.21-.27,.4-1.06,1.13-2.1,1.6-3.13,1.4-.08-.02-.17-.04-.25-.07-.24,.33-.5,.63-.79,.89Zm-1.4-1.8c-.16,.53-.24,.98-.23,1.36,.02,.39,.13,.58,.33,.58,.29,0,.59-.12,.89-.37,.27-.23,.53-.53,.76-.92-.33-.24-.59-.55-.79-.95-.22-.41-.33-.81-.33-1.22-.26,.44-.48,.95-.64,1.51Zm1.44-2.04c-.11,.37-.13,.76-.06,1.17,.08,.43,.24,.79,.5,1.06,.02,.03,.04,.06,.07,.08,.33-.65,.51-1.28,.54-1.88,.04-.64-.12-1.06-.48-1.25-.26,.15-.45,.42-.57,.81Z"/><path class="cls-1" d="M293.22,88.42c-.32-.31-.15-1.54,.51-3.69,.24-.75,.42-1.29,.54-1.6,.14-.35,.28-.58,.41-.69,.11-.09,.27-.13,.48-.11,.42,.04,.65,.15,.69,.34,.05,.19-.07,.54-.35,1.05-.43,.77-.81,1.58-1.13,2.43,.68-1.25,1.29-2.23,1.84-2.94,.53-.7,.95-1.09,1.26-1.17,.32-.08,.5,.17,.52,.75,.04,.65,.17,1.06,.41,1.22,.23,.16,.46,.01,.71-.44,.14-.24,.28-.34,.41-.31,.14,.02,.17,.15,.07,.4-.18,.4-.43,.64-.76,.74-.32,.09-.61,.04-.88-.16-.29-.22-.47-.55-.54-.99-.03-.26-.07-.39-.11-.38-.05,0-.17,.13-.37,.4-.86,1.2-1.64,2.6-2.33,4.22-.21,.5-.36,.82-.47,.95-.11,.15-.25,.21-.41,.18-.17,.02-.33-.04-.5-.17Z"/><path class="cls-1" d="M296.95,79.01c-1.52,.14-2.7,.31-3.54,.51-.92,.21-1.34,.42-1.27,.65,.04,.16,0,.26-.1,.31-.1,.05-.23,.02-.37-.07-.88-.63-.5-1.17,1.13-1.61,1.65-.44,4.41-.75,8.29-.92,.35-.02,.69-.03,1.03-.04,.06-.13,.11-.26,.17-.4,.56-1.23,.93-2.02,1.12-2.38,.25-.47,.46-.74,.64-.81,.17-.07,.39-.02,.65,.14,.17,.08,.27,.16,.31,.23,.12,.09,.12,.34-.01,.75-.16,.47-.53,1.27-1.12,2.39,2.24-.06,4.04-.05,5.42,.01,1.37,.08,2.33,.22,2.89,.44s.72,.5,.48,.86c-.05,.07-.13,.1-.25,.1s-.45-.04-.99-.13c-1.96-.29-4.63-.42-8.01-.37-.38,.69-.9,1.62-1.56,2.8-.71,1.83-1.13,3.4-1.27,4.73-.13,1.36,.05,2.26,.55,2.72,.24,.21,.6,.17,1.09-.11,.47-.28,.98-.74,1.53-1.37,.57-.66,1.07-1.4,1.51-2.21,.12-.23,.21-.37,.27-.42s.13-.08,.21-.07c.2,0,.28,.09,.25,.24-.04,.14-.22,.47-.54,.99-.99,1.56-1.85,2.6-2.59,3.14-.75,.54-1.44,.62-2.08,.24-.91-.55-1.28-1.74-1.12-3.57,.17-1.83,.86-4.18,2.07-7.06-1.74,.05-3.33,.14-4.8,.28Z"/></g></g></g></svg>